<?xml version="1.0" encoding="utf-8"?>
<?xml-stylesheet type="text/xsl" href="rss1.xsl"?>
<rss version="2.0" xmlns:atom="http://www.w3.org/2005/Atom" xmlns:content="http://purl.org/rss/1.0/modules/content/" xmlns:dc="http://purl.org/dc/elements/1.1/" xmlns:media="http://search.yahoo.com/mrss/">
<channel>
 <title>Getty</title>
 <link>http://www.gettyimg.com/</link>
 <atom:link href="http://www.gettyimg.com/" rel="self" type="application/rss+xml" />

 
                <item>
                <title><![CDATA[【Requests】[REQ AUD] - Melanie Blatt (All Saints) solo singles discography]]></title>
                <link><![CDATA[https://sharemania.us/threads/melanie-blatt-all-saints-solo-singles-discography.235155/]]></link>
                <description><![CDATA[<article>
<blockquote class="messageText SelectQuoteContainer ugc baseHtml">
Hi team, can I please ask for your help with Melanie Blatt (All Saints) solo singles discography? <br>
<br>
Thank you so much!<br>
<br>
Do Me Wrong<br>
See Me<br>
"<a href="https://en.wikipedia.org/wiki/I%27m_Leavin%27_(Outsidaz_song)" target="_blank" class="externalLink" rel="nofollow">I'm Leavin'</a>" (<a href="https://en.wikipedia.org/wiki/Outsidaz" target="_blank" class="externalLink" rel="nofollow">Outsidaz</a> featuring Melanie Blatt &amp; <a href="https://en.wikipedia.org/wiki/Rah_Digga" target="_blank" class="externalLink" rel="nofollow">Rah Digga</a>)<br>
"Let's Get Nice" (<a href="https://en.wikipedia.org/wiki/K-Gee" target="_blank" class="externalLink" rel="nofollow">K-Gee</a> featuring Melanie Blatt)<br>
"Dreaming About Tomorrow" (Rupeski featuring Melanie Blatt)<br>
"Ecstasy / Need Your Lovin'" (<a href="https://en.wikipedia.org/wiki/Soul_Clap" target="_blank" class="externalLink" rel="nofollow">Soul Clap</a> featuring Melanie Blatt)<br>
"Fall's Away" (Fur Coat featuring Melanie Blatt)
<div class="messageTextEndMarker">&nbsp;</div>
</blockquote>
</article>]]></description>
                <author><![CDATA[cruisepops]]></author>
                </item>

                
                <item>
                <title><![CDATA[【HD Live Performances】WEB-RiP - Tate McRae - Capital FM Jingle Bell Ball, Live Stream 09.12.23 (1080p)]]></title>
                <link><![CDATA[https://sharemania.us/threads/tate-mcrae-capital-fm-jingle-bell-ball-live-stream-09-12-23-1080p.235157/]]></link>
                <description><![CDATA[<article>
<blockquote class="messageText SelectQuoteContainer ugc baseHtml">
<img src="https://imgs.capitalfm.com/images/621501?crop=16_9&amp;width=660&amp;relax=1&amp;format=webp&amp;signature=6MWl0T95kt2nrhE3SWztSB1SaIo=" class="bbCodeImage LbImage" alt="[​IMG]" data-url="https://imgs.capitalfm.com/images/621501?crop=16_9&amp;width=660&amp;relax=1&amp;format=webp&amp;signature=6MWl0T95kt2nrhE3SWztSB1SaIo=" style=""> <br>
<br>
<img src="https://i.dailymail.co.uk/1s/2023/12/10/01/78781509-12845195-image-a-73_1702172751119.jpg" class="bbCodeImage LbImage" alt="[​IMG]" data-url="https://i.dailymail.co.uk/1s/2023/12/10/01/78781509-12845195-image-a-73_1702172751119.jpg" style=""> <br>
<br>
<img src="https://images2.imgbox.com/f0/05/OLOuKEfY_o.jpg" class="bbCodeImage LbImage" alt="[​IMG]" data-url="https://images2.imgbox.com/f0/05/OLOuKEfY_o.jpg" style=""> <br>
<div class="ToggleTriggerAnchor bbCodeSpoilerContainer">
<button type="button" class="button bbCodeSpoilerButton ToggleTrigger Tooltip JsOnly" data-target="> .SpoilerTarget"><span>Spoiler: <span class="SpoilerTitle">MediaInfo</span></span></button>
<div class="SpoilerTarget bbCodeSpoilerText">
<div class="bbCodeBlock bbCodeCode">
<div class="type">Code:</div>
<pre>General
Unique ID                                : 324350871851252555138810958464569633671 (0xF403B4A60B7BAB870030978C9D0CEB87)
Complete name                            : J:\VIDEO\Tate McRae - Capital FM Jingle Bell Ball, Live Stream 09.12.23 (1080p).mkv
Format                                   : Matroska
Format version                           : Version 4
File size                                : 670 MiB
Duration                                 : 17 min 16 s
Overall bit rate                         : 5 422 kb/s
Frame rate                               : 25.000 FPS
Encoded date                             : 2024-01-03 09:27:51 UTC
Writing application                      : mkvmerge v82.0 ('I'm The President') 64-bit
Writing library                          : libebml v1.4.5 + libmatroska v1.7.1 / VideoReDo (Lavf58.29.100)

Video
ID                                       : 1
Format                                   : AVC
Format/Info                              : Advanced Video Codec
Format profile                           : High@L4
Format settings                          : CABAC / 4 Ref Frames
Format settings, CABAC                   : Yes
Format settings, Reference frames        : 4 frames
Format settings, GOP                     : M=3, N=50
Codec ID                                 : V_MPEG4/ISO/AVC
Duration                                 : 17 min 16 s
Bit rate                                 : 5 230 kb/s
Width                                    : 1 920 pixels
Height                                   : 1 080 pixels
Display aspect ratio                     : 16:9
Frame rate mode                          : Constant
Frame rate                               : 25.000 FPS
Color space                              : YUV
Chroma subsampling                       : 4:2:0
Bit depth                                : 8 bits
Scan type                                : Progressive
Bits/(Pixel*Frame)                       : 0.101
Stream size                              : 646 MiB (96%)
Language                                 : English
Default                                  : No
Forced                                   : No

Audio
ID                                       : 2
Format                                   : AAC LC
Format/Info                              : Advanced Audio Codec Low Complexity
Codec ID                                 : A_AAC-2
Duration                                 : 17 min 15 s
Bit rate                                 : 192 kb/s
Channel(s)                               : 2 channels
Channel layout                           : L R
Sampling rate                            : 48.0 kHz
Frame rate                               : 46.875 FPS (1024 SPF)
Compression mode                         : Lossy
Delay relative to video                  : 11 ms
Stream size                              : 23.4 MiB (3%)
Language                                 : English
Default                                  : Yes
Forced                                   : No

</pre>
</div></div>
</div><br>
Source: Capital FM Jingle Bell Ball, Live Stream (1080p) (Live Stream) (9/12/23) [MAVERICK]<br>
<br>
<div class="bbCodeBlock bbCodeVfcHH HiddenContent">
<div class="attribution type">Hidden Content:</div>
<blockquote>You must reply before you can see the hidden data contained here.</blockquote>
</div>
<div class="messageTextEndMarker">&nbsp;</div>
</blockquote>
</article>]]></description>
                <author><![CDATA[Gizmo234]]></author>
                </item>

                </channel></rss>